<svg width="24" height="24" viewBox="0 0 24 24" fill="none" xmlns="http://www.w3.org/2000/svg">
<path fill-rule="evenodd" clip-rule="evenodd" d="M4 0C2.48122 0 1.25 1.23122 1.25 2.75V12.75C1.25 14.2688 2.48122 15.5 4 15.5H20C21.5188 15.5 22.75 14.2688 22.75 12.75V2.75C22.75 1.23122 21.5188 0 20 0H4ZM7.4301 4.13558C7.09076 3.89804 6.62311 3.98057 6.38558 4.3199C6.14804 4.65924 6.23057 5.12689 6.5699 5.36442L11.5699 8.8644C11.8281 9.0452 12.1719 9.0452 12.4301 8.8644L17.4301 5.36442C17.7694 5.12689 17.852 4.65924 17.6144 4.3199C17.3769 3.98057 16.9092 3.89804 16.5699 4.13558L12 7.3345L7.4301 4.13558Z" fill="black"/>
</svg>
