<svg width="220" height="44" viewBox="0 0 220 44" fill="none" xmlns="http://www.w3.org/2000/svg">
<path d="M15.7435 15.0992L20.5056 5.50681C21.1168 4.2754 22.8831 4.2754 23.4943 5.50681L28.2564 15.0992L38.906 16.6469C40.2724 16.8455 40.8169 18.5155 39.8278 19.4734L32.1231 26.9349L33.9414 37.4758C34.1749 38.8296 32.7459 39.8617 31.5232 39.2224L22 34.2429L12.4767 39.2224C11.2541 39.8617 9.82496 38.8296 10.0585 37.4758L11.8768 26.9349L4.17217 19.4734C3.18294 18.5155 3.72753 16.8455 5.09392 16.6469L15.7435 15.0992Z" fill="black" stroke="black" stroke-width="1.5" stroke-linecap="round" stroke-linejoin="round"/>
<path d="M59.7435 15.0992L64.5056 5.50681C65.1168 4.2754 66.8831 4.2754 67.4943 5.50681L72.2564 15.0992L82.906 16.6469C84.2724 16.8455 84.8169 18.5155 83.8278 19.4734L76.1231 26.9349L77.9414 37.4758C78.1749 38.8296 76.7459 39.8617 75.5232 39.2224L66 34.2429L56.4767 39.2224C55.2541 39.8617 53.825 38.8296 54.0585 37.4758L55.8768 26.9349L48.1722 19.4734C47.1829 18.5155 47.7275 16.8455 49.0939 16.6469L59.7435 15.0992Z" fill="black" stroke="black" stroke-width="1.5" stroke-linecap="round" stroke-linejoin="round"/>
<path d="M103.743 15.0992L108.506 5.50681C109.117 4.2754 110.883 4.2754 111.494 5.50681L116.256 15.0992L126.906 16.6469C128.272 16.8455 128.817 18.5155 127.828 19.4734L120.123 26.9349L121.941 37.4758C122.175 38.8296 120.746 39.8617 119.523 39.2224L110 34.2429L100.477 39.2224C99.2541 39.8617 97.825 38.8296 98.0585 37.4758L99.8768 26.9349L92.1722 19.4734C91.1829 18.5155 91.7275 16.8455 93.0939 16.6469L103.743 15.0992Z" fill="black" stroke="black" stroke-width="1.5" stroke-linecap="round" stroke-linejoin="round"/>
<path d="M147.743 15.0992L152.506 5.50681C153.117 4.2754 154.883 4.2754 155.494 5.50681L160.256 15.0992L170.906 16.6469C172.272 16.8455 172.817 18.5155 171.828 19.4734L164.123 26.9349L165.941 37.4758C166.175 38.8296 164.746 39.8617 163.523 39.2224L154 34.2429L144.477 39.2224C143.254 39.8617 141.825 38.8296 142.058 37.4758L143.877 26.9349L136.172 19.4734C135.183 18.5155 135.728 16.8455 137.094 16.6469L147.743 15.0992Z" fill="black" stroke="black" stroke-width="1.5" stroke-linecap="round" stroke-linejoin="round"/>
<path d="M191.743 15.0992L196.506 5.50681C197.117 4.2754 198.883 4.2754 199.494 5.50681L204.256 15.0992L214.906 16.6469C216.272 16.8455 216.817 18.5155 215.828 19.4734L208.123 26.9349L209.941 37.4758C210.175 38.8296 208.746 39.8617 207.523 39.2224L198 34.2429L188.477 39.2224C187.254 39.8617 185.825 38.8296 186.058 37.4758L187.877 26.9349L180.172 19.4734C179.183 18.5155 179.728 16.8455 181.094 16.6469L191.743 15.0992Z" fill="black" stroke="black" stroke-width="1.5" stroke-linecap="round" stroke-linejoin="round"/>
</svg>
